<svg width="24" height="24" viewBox="0 0 24 24" fill="none" xmlns="http://www.w3.org/2000/svg">
<path d="M3 4C3 2.89543 3.89543 2 5 2H14C15.1046 2 16 2.89543 16 4V16C16 17.1046 15.1046 18 14 18H5C3.89543 18 3 17.1046 3 16V4Z" fill="#1EE46E"/>
<path fill-rule="evenodd" clip-rule="evenodd" d="M8 8C8 6.89543 8.89543 6 10 6H19C20.1046 6 21 6.89543 21 8V20C21 21.1046 20.1046 22 19 22H10C8.89543 22 8 21.1046 8 20V8ZM10 9C10 8.44772 10.4477 8 11 8H18C18.5523 8 19 8.44772 19 9V12C19 12.5523 18.5523 13 18 13H11C10.4477 13 10 12.5523 10 12V9ZM11 15.5C11.4142 15.5 11.75 15.1642 11.75 14.75C11.75 14.3358 11.4142 14 11 14C10.5858 14 10.25 14.3358 10.25 14.75C10.25 15.1642 10.5858 15.5 11 15.5ZM11.75 17.25C11.75 17.6642 11.4142 18 11 18C10.5858 18 10.25 17.6642 10.25 17.25C10.25 16.8358 10.5858 16.5 11 16.5C11.4142 16.5 11.75 16.8358 11.75 17.25ZM11 20.5C11.4142 20.5 11.75 20.1642 11.75 19.75C11.75 19.3358 11.4142 19 11 19C10.5858 19 10.25 19.3358 10.25 19.75C10.25 20.1642 10.5858 20.5 11 20.5ZM15.25 14.75C15.25 15.1642 14.9142 15.5 14.5 15.5C14.0858 15.5 13.75 15.1642 13.75 14.75C13.75 14.3358 14.0858 14 14.5 14C14.9142 14 15.25 14.3358 15.25 14.75ZM14.5 18C14.9142 18 15.25 17.6642 15.25 17.25C15.25 16.8358 14.9142 16.5 14.5 16.5C14.0858 16.5 13.75 16.8358 13.75 17.25C13.75 17.6642 14.0858 18 14.5 18ZM15.25 19.75C15.25 20.1642 14.9142 20.5 14.5 20.5C14.0858 20.5 13.75 20.1642 13.75 19.75C13.75 19.3358 14.0858 19 14.5 19C14.9142 19 15.25 19.3358 15.25 19.75ZM18 15.5C18.4142 15.5 18.75 15.1642 18.75 14.75C18.75 14.3358 18.4142 14 18 14C17.5858 14 17.25 14.3358 17.25 14.75C17.25 15.1642 17.5858 15.5 18 15.5ZM18.75 17.25C18.75 17.6642 18.4142 18 18 18C17.5858 18 17.25 17.6642 17.25 17.25C17.25 16.8358 17.5858 16.5 18 16.5C18.4142 16.5 18.75 16.8358 18.75 17.25ZM18 20.5C18.4142 20.5 18.75 20.1642 18.75 19.75C18.75 19.3358 18.4142 19 18 19C17.5858 19 17.25 19.3358 17.25 19.75C17.25 20.1642 17.5858 20.5 18 20.5Z" fill="#1380E5"/>
<path fill-rule="evenodd" clip-rule="evenodd" d="M16 6H10C8.89543 6 8 6.89543 8 8V18H11H14C14.1058 18 14.2096 17.9918 14.311 17.976C13.9883 17.8922 13.75 17.5989 13.75 17.25C13.75 16.8358 14.0858 16.5 14.5 16.5C14.9142 16.5 15.25 16.8358 15.25 17.25C15.25 17.395 15.2088 17.5305 15.1375 17.6452C15.6587 17.2842 16 16.682 16 16V13H11C10.4477 13 10 12.5523 10 12V9C10 8.44772 10.4477 8 11 8H16V6ZM11 18C10.5858 18 10.25 17.6642 10.25 17.25C10.25 16.8358 10.5858 16.5 11 16.5C11.4142 16.5 11.75 16.8358 11.75 17.25C11.75 17.6642 11.4142 18 11 18ZM11.75 14.75C11.75 15.1642 11.4142 15.5 11 15.5C10.5858 15.5 10.25 15.1642 10.25 14.75C10.25 14.3358 10.5858 14 11 14C11.4142 14 11.75 14.3358 11.75 14.75ZM14.5 15.5C14.9142 15.5 15.25 15.1642 15.25 14.75C15.25 14.3358 14.9142 14 14.5 14C14.0858 14 13.75 14.3358 13.75 14.75C13.75 15.1642 14.0858 15.5 14.5 15.5Z" fill="#1A2CD4"/>
</svg>
