<svg width="24" height="24" viewBox="0 0 24 24" fill="none" xmlns="http://www.w3.org/2000/svg">
<circle cx="9" cy="9" r="7" fill="#1EE46E"/>
<path fill-rule="evenodd" clip-rule="evenodd" d="M15 22C19.4183 22 23 18.4183 23 14C23 9.58172 19.4183 6 15 6C10.5817 6 7 9.58172 7 14C7 18.4183 10.5817 22 15 22ZM20 15C20 17.7614 17.7614 20 15 20C12.2386 20 10 17.7614 10 15H20ZM13 11.5C13 12.3284 12.3284 13 11.5 13C10.6716 13 10 12.3284 10 11.5C10 10.6716 10.6716 10 11.5 10C12.3284 10 13 10.6716 13 11.5ZM18.5 13C19.3284 13 20 12.3284 20 11.5C20 10.6716 19.3284 10 18.5 10C17.6716 10 17 10.6716 17 11.5C17 12.3284 17.6716 13 18.5 13Z" fill="#1380E5"/>
<path fill-rule="evenodd" clip-rule="evenodd" d="M12.6076 15C14.6404 13.7751 16 11.5463 16 9C16 7.92902 15.7595 6.91422 15.3295 6.00666C15.2202 6.00224 15.1104 6 15 6C10.5817 6 7 9.58172 7 14C7 14.6065 7.0675 15.1973 7.19539 15.7652C7.77113 15.9184 8.37603 16 9 16C9.36863 16 9.7306 15.9715 10.0838 15.9166C10.0288 15.6195 10 15.3131 10 15H12.6076ZM11.5 13C12.3284 13 13 12.3284 13 11.5C13 10.6716 12.3284 10 11.5 10C10.6716 10 10 10.6716 10 11.5C10 12.3284 10.6716 13 11.5 13Z" fill="#1A2CD4"/>
</svg>
