<svg width="24" height="24" viewBox="0 0 24 24" fill="none" xmlns="http://www.w3.org/2000/svg">
<path d="M13.7 5.99997V13.3512C13.7 13.7095 13.409 14 13.05 14H8.825C8.64551 14 8.5 13.8508 8.5 13.6667V10.7559C8.5 10.3976 8.20898 10.1071 7.85 10.1071H5.9C5.54101 10.1071 5.25 10.3976 5.25 10.7559V13.6667C5.25 13.8508 5.10449 14 4.925 14H3.95C3.59101 14 3.3 13.7095 3.3 13.3512V5.99997C4.925 6 8.5 6 8.5 6C8.5 6 12.4 5.99997 13.7 5.99997Z" fill="#1EE46E"/>
<path d="M13.4049 2.42668C13.3082 2.16957 13.0672 2 12.7985 2H4.3538C4.09259 2 3.85675 2.16038 3.75507 2.40715L2 6.66666H15L13.4049 2.42668Z" fill="#1EE46E"/>
<path d="M3.625 8.33333C4.54167 8.33333 5.25 7.60683 5.25 6.66666H2C2 7.60683 2.70833 8.33333 3.625 8.33333Z" fill="#1EE46E"/>
<path d="M6.875 8.33333C7.79167 8.33333 8.5 7.60683 8.5 6.66666H5.25C5.25 7.60683 5.95833 8.33333 6.875 8.33333Z" fill="#1EE46E"/>
<path d="M10.125 8.33333C11.0417 8.33333 11.75 7.60683 11.75 6.66666H8.5C8.5 7.60683 9.20833 8.33333 10.125 8.33333Z" fill="#1EE46E"/>
<path d="M13.375 8.33333C14.2917 8.33333 15 7.60683 15 6.66666H11.75C11.75 7.60683 12.4583 8.33333 13.375 8.33333Z" fill="#1EE46E"/>
<path d="M8.59999 16.3904C9.30749 16.3904 9.93742 16.16 10.4 15.7778C10.8626 16.16 11.4925 16.3904 12.2 16.3904C12.9075 16.3904 13.5374 16.16 14 15.7778C14.4626 16.16 15.0925 16.3904 15.8 16.3904C16.5075 16.3904 17.1374 16.16 17.6 15.7778C18.0626 16.16 18.6925 16.3904 19.4 16.3904C19.7569 16.3904 20.0941 16.3317 20.4 16.2246V21.243C20.4 21.6611 20.0418 22 19.6 22H14.5714C14.2558 22 14 21.7513 14 21.4444V18.2152C14 17.7972 13.6418 17.4583 13.2 17.4583H10.8C10.3582 17.4583 9.99999 17.7972 9.99999 18.2152V21.4444C9.99999 21.7513 9.74416 22 9.42857 22H8.39999C7.95817 22 7.59999 21.6611 7.59999 21.243V16.2246C7.9059 16.3317 8.24308 16.3904 8.59999 16.3904Z" fill="#1380E5"/>
<path d="M20.0368 8.49779C19.9177 8.19783 19.6211 8 19.2904 8H8.89698C8.57549 8 8.28523 8.18711 8.16008 8.47501L6 13.4444H22L20.0368 8.49779Z" fill="#1380E5"/>
<path d="M8 15.3889C9.1282 15.3889 10 14.5413 10 13.4444H6C6 14.5413 6.87179 15.3889 8 15.3889Z" fill="#1380E5"/>
<path d="M12 15.3889C13.1282 15.3889 14 14.5413 14 13.4444H10C10 14.5413 10.8718 15.3889 12 15.3889Z" fill="#1380E5"/>
<path d="M16 15.3889C17.1282 15.3889 18 14.5413 18 13.4444H14C14 14.5413 14.8718 15.3889 16 15.3889Z" fill="#1380E5"/>
<path d="M20 15.3889C21.1282 15.3889 22 14.5413 22 13.4444H18C18 14.5413 18.8718 15.3889 20 15.3889Z" fill="#1380E5"/>
<path fill-rule="evenodd" clip-rule="evenodd" d="M14.366 8H8.89701C8.57551 8 8.28525 8.18711 8.16011 8.47501L7.45068 10.1071H7.85002C8.20901 10.1071 8.50002 10.3976 8.50002 10.7559V13.6667C8.50002 13.8508 8.64553 14 8.82502 14H9.92154C9.97273 13.8248 10 13.6385 10 13.4444C10 13.6385 10.0273 13.8248 10.0785 14H13.05C13.409 14 13.7 13.7095 13.7 13.3512V8.30188C13.9486 8.25279 14.1747 8.14801 14.366 8Z" fill="#1A2CD4"/>
</svg>
