<svg xmlns="http://www.w3.org/2000/svg" width="64" height="64" fill="none" viewBox="0 0 64 64"><rect width="64" height="64" fill="url(#paint0_linear_815:25915)" rx="20"/><path fill="url(#paint1_linear_815:25915)" fill-rule="evenodd" d="M25.25 15.7042C26.6704 13.4771 29.1627 12 32 12C34.8373 12 37.3296 13.477 38.7499 15.7041C41.3291 15.1337 44.1358 15.8516 46.1421 17.8578C48.1484 19.8641 48.8663 22.6709 48.2958 25.25C50.5229 26.6704 52 29.1627 52 32C52 34.8373 50.523 37.3296 48.2959 38.7499C48.8664 41.3291 48.1485 44.1359 46.1422 46.1421C44.1359 48.1484 41.3291 48.8663 38.75 48.2958C37.3296 50.523 34.8373 52 32 52C29.1627 52 26.6703 50.5229 25.25 48.2957C22.6709 48.8662 19.8641 48.1483 17.8578 46.142C15.8516 44.1358 15.1337 41.3291 15.7041 38.7499C13.477 37.3296 12 34.8373 12 32C12 29.1627 13.4771 26.6704 15.7042 25.25C15.1338 22.6709 15.8517 19.8642 17.8579 17.8579C19.8642 15.8517 22.6709 15.1338 25.25 15.7042ZM29.9412 38.1145L40.0573 28.0641L37.9429 25.9359L29.9412 33.8856L26.0573 30.0268L23.9429 32.155L29.9412 38.1145Z" clip-rule="evenodd"/><defs><linearGradient id="paint0_linear_815:25915" x1="32" x2="32" y1="0" y2="64" gradientUnits="userSpaceOnUse"><stop stop-color="#111827" stop-opacity=".4"/><stop offset="1" stop-color="#111827" stop-opacity=".8"/></linearGradient><linearGradient id="paint1_linear_815:25915" x1="32" x2="32" y1="12" y2="52" gradientUnits="userSpaceOnUse"><stop stop-color="#fff" stop-opacity=".7"/><stop offset="1" stop-color="#fff"/></linearGradient></defs></svg>