<svg xmlns="http://www.w3.org/2000/svg" width="1361" height="1361" fill="none" viewBox="0 0 1361 1361"><g filter="url(#filter0_ii)"><circle cx="680.499" cy="680.5" r="497.428" fill="#0E1A1F"/><circle cx="680.499" cy="680.5" r="497.428" fill="url(#paint0_radial)" style="mix-blend-mode:overlay"/></g><g style="mix-blend-mode:overlay" opacity=".7"><path stroke="#fff" stroke-miterlimit="10" d="M882.57 328.211C655.97 325.031 380.862 480.334 269.507 674.874C376.735 869.253 648.075 1029.45 874.915 1032.77C986.271 838.226 989.937 522.349 882.57 328.211Z" style="mix-blend-mode:color-dodge"/><path stroke="#fff" stroke-miterlimit="10" d="M427.49 497.931C520.136 665.885 754.217 803.925 950.199 806.79" style="mix-blend-mode:color-dodge"/><path stroke="#fff" stroke-miterlimit="10" d="M882.57 328.211C741.025 423.333 535.001 659.033 423.544 853.194" style="mix-blend-mode:color-dodge"/><path stroke="#fff" stroke-miterlimit="10" d="M882.569 328.211C860.744 494.382 752.238 787.348 640.642 981.75" style="mix-blend-mode:color-dodge"/><path stroke="#fff" stroke-miterlimit="10" d="M950.198 806.789C1146.18 809.654 1229.93 675.702 1137.29 507.748" style="mix-blend-mode:color-dodge"/><path stroke="#fff" stroke-miterlimit="10" d="M882.568 328.211C1089.58 497.569 1167.23 793.193 1055.64 987.595" style="mix-blend-mode:color-dodge"/><path stroke="#fff" stroke-miterlimit="10" d="M882.568 328.211C1132.37 429.025 1245.04 668.989 1133.44 863.391" style="mix-blend-mode:color-dodge"/><path stroke="#fff" stroke-miterlimit="10" d="M882.567 328.211C1109.17 331.391 1203.13 492.066 1091.53 686.468C984.304 492.09 712.964 331.895 486.124 328.576C597.72 134.174 775.58 133.972 882.567 328.211Z" style="mix-blend-mode:color-dodge"/><path stroke="#fff" stroke-miterlimit="10" d="M1137.29 507.748C1044.88 339.933 810.561 201.754 614.82 199.028" style="mix-blend-mode:color-dodge"/><path stroke="#fff" stroke-miterlimit="10" d="M882.568 328.211C1024.11 233.09 1048.85 313.608 937.255 508.01" style="mix-blend-mode:color-dodge"/><path stroke="#fff" stroke-miterlimit="10" d="M882.568 328.211C904.393 162.041 831.614 185.293 720.017 379.695" style="mix-blend-mode:color-dodge"/><path stroke="#fff" stroke-miterlimit="10" d="M486.123 328.575C259.143 325.498 162.035 480.356 269.504 674.874C381.1 480.472 655.967 325.031 882.807 328.35" style="mix-blend-mode:color-dodge"/><path stroke="#fff" stroke-miterlimit="10" d="M614.819 199.028C418.837 196.163 335.083 330.115 427.729 498.069" style="mix-blend-mode:color-dodge"/><path stroke="#fff" stroke-miterlimit="10" d="M882.568 328.211C675.792 158.992 416.617 179.447 305.16 373.608" style="mix-blend-mode:color-dodge"/><path stroke="#fff" stroke-miterlimit="10" d="M882.567 328.211C632.769 227.397 338.811 303.651 227.215 498.053" style="mix-blend-mode:color-dodge"/><path stroke="#fff" stroke-miterlimit="10" d="M269.505 674.874C157.909 869.276 251.87 1029.95 478.47 1033.13C585.597 1227.13 763.457 1226.93 874.914 1032.77C647.833 1029.31 376.733 869.253 269.505 674.874Z" style="mix-blend-mode:color-dodge"/><path stroke="#fff" stroke-miterlimit="10" d="M223.649 853.214C316.296 1021.17 550.376 1159.21 746.358 1162.07" style="mix-blend-mode:color-dodge"/><path stroke="#fff" stroke-miterlimit="10" d="M298.749 982.099C352.806 1080.19 489.61 1161.1 603.979 1162.5" style="mix-blend-mode:color-dodge"/><path stroke="#fff" stroke-miterlimit="10" d="M423.786 853.333C312.19 1047.73 336.928 1128.25 478.472 1033.13" style="mix-blend-mode:color-dodge"/><path stroke="#fff" stroke-miterlimit="10" d="M641.022 981.648C529.426 1176.05 456.786 1199.06 478.472 1033.13" style="mix-blend-mode:color-dodge"/><path stroke="#fff" stroke-miterlimit="10" d="M875.056 1032.53C763.46 1226.93 585.599 1227.13 478.612 1032.89C705.212 1036.07 980.459 880.527 1091.92 686.367C1198.9 880.606 1101.9 1035.85 875.056 1032.53Z" style="mix-blend-mode:color-dodge"/><path stroke="#fff" stroke-miterlimit="10" d="M746.358 1162.07C942.34 1164.94 1026.09 1030.99 933.448 863.032" style="mix-blend-mode:color-dodge"/><path stroke="#fff" stroke-miterlimit="10" d="M604.12 1162.26C718.73 1163.81 767.702 1085.65 713.265 987.667" style="mix-blend-mode:color-dodge"/><path stroke="#fff" stroke-miterlimit="10" d="M1055.78 987.355C944.181 1181.76 685.386 1202.11 478.23 1032.99" style="mix-blend-mode:color-dodge"/><path stroke="#fff" stroke-miterlimit="10" d="M1133.58 863.151C1021.99 1057.55 728.169 1133.57 478.231 1032.99" style="mix-blend-mode:color-dodge"/><path stroke="#fff" stroke-miterlimit="10" d="M1091.67 686.228C980.078 880.63 705.211 1036.07 478.37 1032.75C371.244 838.753 374.669 522.737 486.265 328.335C713.346 331.793 984.446 491.849 1091.67 686.228Z" style="mix-blend-mode:color-dodge"/><path stroke="#fff" stroke-miterlimit="10" d="M933.553 863.413C840.906 695.458 606.826 557.418 410.844 554.553" style="mix-blend-mode:color-dodge"/><path stroke="#fff" stroke-miterlimit="10" d="M713.264 987.667C659.207 889.579 522.403 808.666 408.033 807.262" style="mix-blend-mode:color-dodge"/><path stroke="#fff" stroke-miterlimit="10" d="M937.396 507.769C825.8 702.171 619.915 937.63 478.371 1032.75" style="mix-blend-mode:color-dodge"/><path stroke="#fff" stroke-miterlimit="10" d="M720.161 379.454C608.565 573.856 500.299 866.961 478.233 1032.99" style="mix-blend-mode:color-dodge"/><path stroke="#fff" stroke-miterlimit="10" d="M269.505 674.875C162.277 480.496 259.144 325.498 486.124 328.576C374.528 522.978 371.103 838.994 478.229 1032.99" style="mix-blend-mode:color-dodge"/><path stroke="#fff" stroke-miterlimit="10" d="M410.841 554.554C214.859 551.689 131.105 685.641 223.751 853.595" style="mix-blend-mode:color-dodge"/><path stroke="#fff" stroke-miterlimit="10" d="M408.033 807.263C293.423 805.72 244.451 883.873 298.888 981.859" style="mix-blend-mode:color-dodge"/><path stroke="#fff" stroke-miterlimit="10" d="M305.161 373.608C193.565 568.01 271.455 863.773 478.23 1032.99" style="mix-blend-mode:color-dodge"/><path stroke="#fff" stroke-miterlimit="10" d="M227.597 497.952C116.001 692.354 228.673 932.317 478.471 1033.13" style="mix-blend-mode:color-dodge"/><path stroke="#fff" stroke-miterlimit="10" stroke-width=".468" d="M245.105 922.191C236.097 904.451 223.947 881.038 216.978 862.546C212.454 850.931 207.056 835.275 203.533 823.595C200.415 813.435 197.005 799.891 194.647 789.527C190.033 769.179 185.872 741.375 184.398 720.589C182.759 698.422 182.092 668.456 184.075 646.129C185.728 627.149 188.28 601.613 192.656 582.919C196.855 565.087 202.877 541.877 208.178 524.359C211.721 513.222 217.731 498.365 222.135 487.403C228.639 470.581 239.549 448.906 248.839 433.37C261.054 412.771 278.61 386.252 293.674 367.941C309.953 348.08 343.372 308.535 399.648 269.967C409.27 263.304 421.968 255.202 431.654 249.541C442.238 243.433 456.38 236.165 467.168 230.818C485.007 222.147 509.266 212.36 528.297 206.628C548.087 200.691 574.816 193.294 595.177 190.259C610.397 187.793 630.72 185.379 645.864 184.155C655.386 183.222 668.353 182.992 677.698 182.921C689.905 182.895 705.936 183.469 717.966 184.306C728.134 185.032 741.747 186.46 751.738 188.049C759.767 189.147 770.378 190.773 777.989 192.595C785.6 194.416 795.693 196.385 803.303 198.207C811.155 200.168 821.311 203.138 828.884 205.581C850.881 212.493 865.571 218.724 873.587 222.066C893.027 230.074 907.984 238.066 914.138 241.298C919.812 244.252 935.111 252.764 952.12 263.87C974.46 277.411 989.292 289.511 989.532 289.65C1004.84 302.027 1012.43 308.336 1025.6 321.086C1031.13 326.525 1038.4 333.938 1043.78 339.618C1049.16 345.298 1056.15 353.194 1061.26 359.356C1067.19 366.315 1074.58 375.731 1079.99 383.034C1085.16 390.197 1091.8 399.817 1096.83 407.222C1103.12 416.323 1110.81 429.122 1115.93 439.151C1125.32 456.789 1137.09 480.304 1143.92 499.038C1149.15 513.313 1155.81 532.909 1160.14 547.63C1163.26 557.79 1166.15 571.677 1168.51 582.041C1172.88 602.25 1176.32 629.637 1177.31 650.145C1178.57 672.415 1178.24 702.446 1176.12 725.014C1174.46 743.994 1171.05 769.354 1166.19 787.771C1161.51 805.325 1155.11 828.637 1149.71 845.775C1146.03 857.153 1139.67 871.491 1135.03 882.314C1129.3 896.689 1119.72 914.95 1111.82 928.074C1099.36 948.535 1082.05 975.193 1066.98 993.504C1050.7 1013.36 1017.29 1052.91 961.01 1091.48C951.907 1097.8 938.968 1105.76 929.282 1111.42C918.698 1117.53 904.555 1124.8 893.768 1130.14C875.929 1138.82 851.67 1148.6 832.639 1154.33C812.849 1160.27 786.12 1167.67 765.759 1170.7C750.539 1173.17 730.216 1175.58 715.072 1176.81C705.55 1177.74 692.583 1177.97 683.238 1178.04C671.031 1178.07 655 1177.49 642.97 1176.66C632.802 1175.93 619.189 1174.5 609.198 1172.91C601.169 1171.82 590.558 1170.19 582.947 1168.37C575.336 1166.55 565.243 1164.58 557.633 1162.76C549.781 1160.79 539.625 1157.82 532.052 1155.38C510.536 1148.75 494.504 1142.06 487.348 1138.9C467.909 1130.89 452.952 1122.9 446.797 1119.66C438.236 1115.04 424.381 1107.37 408.816 1097.09C387.134 1082.97 372.303 1070.87 372.062 1070.73C356.749 1058.35 349.163 1052.04 335.99 1039.29C330.468 1033.85 323.198 1026.44 317.815 1020.76C312.431 1015.08 305.44 1007.18 300.335 1001.02C294.407 994.063 287.009 984.647 281.601 977.344C276.432 970.181 269.794 960.561 264.765 953.156C257.811 944.64 250.502 931.738 245.105 922.191Z" style="mix-blend-mode:color-dodge"/></g><defs><filter id="filter0_ii" width="994.856" height="994.856" x="183.071" y="183.072" color-interpolation-filters="sRGB" filterUnits="userSpaceOnUse"><feFlood flood-opacity="0" result="BackgroundImageFix"/><feBlend in="SourceGraphic" in2="BackgroundImageFix" mode="normal" result="shape"/><feColorMatrix in="SourceAlpha" result="hardAlpha" type="matrix" values="0 0 0 0 0 0 0 0 0 0 0 0 0 0 0 0 0 0 127 0"/><feOffset/><feGaussianBlur stdDeviation="49.135"/><feComposite in2="hardAlpha" k2="-1" k3="1" operator="arithmetic"/><feColorMatrix type="matrix" values="0 0 0 0 0.117647 0 0 0 0 0.894118 0 0 0 0 0.431373 0 0 0 0.8 0"/><feBlend in2="shape" mode="normal" result="effect1_innerShadow"/><feColorMatrix in="SourceAlpha" result="hardAlpha" type="matrix" values="0 0 0 0 0 0 0 0 0 0 0 0 0 0 0 0 0 0 127 0"/><feOffset/><feGaussianBlur stdDeviation="14.974"/><feComposite in2="hardAlpha" k2="-1" k3="1" operator="arithmetic"/><feColorMatrix type="matrix" values="0 0 0 0 0.117647 0 0 0 0 0.894118 0 0 0 0 0.431373 0 0 0 0.8 0"/><feBlend in2="effect1_innerShadow" mode="normal" result="effect2_innerShadow"/></filter><radialGradient id="paint0_radial" cx="0" cy="0" r="1" gradientTransform="translate(680.499 680.5) rotate(90) scale(497.428)" gradientUnits="userSpaceOnUse"><stop stop-color="#fff"/><stop offset="1" stop-color="rgba(255, 255, 255, 0)" stop-opacity="1"/></radialGradient></defs></svg>