<svg xmlns="http://www.w3.org/2000/svg" width="139" height="30" fill="none" viewBox="0 0 139 30"><path fill="#FF2002" d="M62.7503 8.31777C58.3544 8.31777 56.889 10.7312 56.5011 11.5932C55.6392 9.82619 53.9584 8.31777 50.726 8.31777C47.7523 8.31777 46.1146 9.39521 45.2526 10.3865C44.8216 8.83494 44.1752 8.23157 44.1752 8.23157L38.357 8.18848C38.4863 8.36087 38.5725 8.57636 38.7018 8.74875C38.7449 8.87804 38.8311 9.00733 38.8742 9.13663C38.8742 9.17972 38.9173 9.22282 38.9173 9.22282C39.0034 9.39521 39.0465 9.6107 39.1327 9.86929C39.4775 11.1191 39.5637 12.4552 39.5206 13.5326C39.4775 14.0067 39.4344 14.5238 39.3482 15.0841L36.5469 29.996H42.753L45.425 15.3427C45.5543 14.8255 45.8991 13.7481 46.718 13.1016C48.2264 12.1535 49.6486 12.843 49.6486 12.843C49.6486 12.843 51.4587 13.4895 51.2863 16.6787L48.8728 29.996H54.9496L57.32 16.808L57.5786 15.6013C57.5786 15.6013 57.9234 13.8343 59.0008 13.0154C60.423 12.2397 61.716 12.843 61.716 12.843C61.716 12.843 63.5261 13.4895 63.3537 16.6787L60.9402 29.996H67.017L69.3874 16.808C69.3443 16.808 70.5079 8.31777 62.7503 8.31777Z"/><path fill="#FF2002" d="M35.2534 14.8685C35.2534 14.6962 35.2103 14.61 35.2103 14.61C34.0898 6.76616 24.6514 8.36078 24.6514 8.36078C19.4366 8.96415 16.5059 11.3776 14.8251 13.8773C14.8251 13.8773 14.4372 14.3945 14.0062 15.3426C13.92 15.5581 13.7907 15.7736 13.7046 15.9891C13.7046 15.9891 13.7046 16.0322 13.6615 16.0322C13.6184 16.1615 13.5753 16.2908 13.5322 16.377C13.2305 17.1096 12.9719 17.9716 12.7564 19.0059C12.4978 19.911 12.4116 20.9453 12.4116 21.7642C12.4116 22.7985 12.4978 23.6174 12.4978 23.6174C13.6184 31.4181 23.0568 29.8666 23.0568 29.8666C28.6164 29.2201 31.5901 26.5049 33.1847 23.8329C33.745 22.9278 34.9518 20.6867 35.2534 17.5406C35.2534 17.3682 35.2965 17.1958 35.2965 17.0234C35.2965 16.9372 35.2965 16.8079 35.2965 16.7218C35.2965 16.4632 35.2965 16.2477 35.2965 16.0322C35.2965 15.946 35.2965 15.8167 35.2965 15.7305C35.2965 15.3857 35.2534 15.0409 35.2534 14.8685ZM29.6938 16.5063C29.6938 16.5063 29.6938 16.7217 29.6507 17.0234C29.6507 17.0234 29.6507 17.0665 29.6507 17.1096C29.5645 17.6268 29.4352 18.4457 29.2198 19.1783C28.9612 20.0834 28.6164 21.1177 28.0992 22.0228C27.108 23.9191 25.4272 25.9016 22.5827 25.9447C22.5827 25.9447 18.1867 26.3326 18.5746 20.9453C18.5746 20.9453 18.6177 20.4713 18.7039 19.8679C18.8763 18.4026 19.4366 16.9372 19.8675 16.0322C19.9968 15.7736 20.1261 15.4719 20.2554 15.2133C20.3416 15.084 20.3416 14.9978 20.3416 14.9978C21.3329 13.2308 23.0137 11.4638 25.6426 11.4207C25.6857 11.5069 30.0386 11.0759 29.6938 16.5063Z"/><path fill="#FF2002" d="M93.9959 22.7556C94.1251 21.9367 94.4699 20.299 94.6423 19.3508C94.6854 19.1785 94.7285 19.0061 94.7285 18.8337C94.7716 18.7044 94.7716 18.6182 94.7716 18.6182C94.8147 18.2734 94.8578 17.9286 94.9009 17.5407C94.9009 17.3683 94.944 17.196 94.944 17.0236C94.944 16.9374 94.944 16.8081 94.944 16.7219C94.944 16.4633 94.944 16.2478 94.944 16.0323C94.944 15.9461 94.944 15.8168 94.944 15.7306C94.944 15.3427 94.9009 15.0411 94.9009 14.8256C94.9009 14.6532 94.8578 14.567 94.8578 14.567C93.7373 6.72319 84.2989 8.31781 84.2989 8.31781C79.084 8.92118 76.1534 11.3347 74.4726 13.8343C74.4726 13.8343 74.0847 14.3515 73.6537 15.2997C73.5675 15.5151 73.4382 15.7306 73.352 15.9461C73.352 15.9461 73.352 15.9892 73.3089 15.9892C73.2658 16.1185 73.2227 16.2478 73.1796 16.334C72.8779 17.0667 72.6194 17.9286 72.4039 18.963C72.1453 19.868 72.0591 20.9024 72.0591 21.7212C72.0591 22.7556 72.1453 23.5744 72.1453 23.5744C73.3089 31.4182 82.7473 29.8667 82.7473 29.8667C85.1177 29.6081 87.014 28.9616 88.5224 28.0997C88.8672 29.4788 89.3844 29.996 89.3844 29.996H94.9871C93.6511 28.4876 93.6942 25.3414 93.9959 22.7556ZM89.3844 16.5064C89.3844 16.5064 89.3844 16.7219 89.3413 17.0236C89.3413 17.0236 89.3413 17.0667 89.3413 17.1098C89.2551 17.6269 89.1258 18.4458 88.9103 19.1784C88.6517 20.0835 88.3069 21.1179 87.7898 22.0229C86.7985 23.9192 85.1177 25.9017 82.2733 25.9448C82.2733 25.9448 77.8773 26.3327 78.2652 20.9455C78.2652 20.9455 78.3083 20.4714 78.3945 19.868C78.5668 18.4027 79.1271 16.9374 79.5581 16.0323C79.6874 15.7737 79.8167 15.472 79.946 15.2135C80.0322 15.0842 80.0322 14.998 80.0322 14.998C81.0234 13.231 82.7042 11.4639 85.3332 11.4209C85.3332 11.507 89.7292 11.0761 89.3844 16.5064Z"/><path fill="#FF2002" d="M22.7556 4.0513L0 2.32739V6.76646H5.51652L1.07744 29.9962H7.24043L11.3347 6.76646H22.2385L22.7556 4.0513Z"/><path fill="#FF2002" d="M132.354 14.8685C132.354 14.6962 132.311 14.61 132.311 14.61C131.19 6.76616 121.752 8.36078 121.752 8.36078C116.537 8.96415 113.606 11.3776 111.926 13.8773C111.926 13.8773 111.538 14.3945 111.107 15.3426C111.021 15.5581 110.891 15.7736 110.805 15.9891C110.805 15.9891 110.805 16.0322 110.762 16.0322C110.719 16.1615 110.676 16.2908 110.633 16.377C110.331 17.1096 110.072 17.9716 109.857 19.0059C109.598 19.911 109.512 20.9453 109.512 21.7642C109.512 22.7985 109.598 23.6174 109.598 23.6174C110.719 31.4612 120.157 29.8666 120.157 29.8666C125.717 29.2201 128.691 26.5049 130.285 23.8329C130.846 22.9278 132.052 20.6867 132.354 17.5406C132.354 17.3682 132.397 17.1958 132.397 17.0234C132.397 16.9372 132.397 16.8079 132.397 16.7217C132.397 16.4632 132.397 16.2477 132.397 16.0322C132.397 15.946 132.397 15.8167 132.397 15.7305C132.397 15.3857 132.397 15.0409 132.354 14.8685ZM126.794 16.5063C126.794 16.5063 126.794 16.7217 126.751 17.0234C126.751 17.0234 126.751 17.0665 126.751 17.1096C126.665 17.6268 126.536 18.4457 126.32 19.1783C126.062 20.0834 125.717 21.1177 125.2 22.0228C124.209 23.9191 122.528 25.9016 119.683 25.9447C119.683 25.9447 115.287 26.3326 115.675 20.9453C115.675 20.9453 115.718 20.4713 115.804 19.8679C115.977 18.4026 116.537 16.9372 116.968 16.0322C117.097 15.7736 117.227 15.4719 117.356 15.2133C117.442 15.084 117.442 14.9978 117.442 14.9978C118.433 13.2308 120.114 11.4638 122.743 11.4207C122.786 11.5069 127.139 11.0759 126.794 16.5063Z"/><path fill="#FF2002" d="M119.381 4.0513L96.6689 2.32739V6.76646H102.142L97.7033 29.9962H103.909L107.961 6.76646H118.907L119.381 4.0513Z"/><path fill="#48CA45" d="M138.862 1.9825C138.862 1.8963 138.862 1.8963 138.862 1.8963C138.733 0.991249 138.345 0.38788 137.828 0C134.552 0.38788 133.561 2.88755 133.561 2.88755L133.475 2.97375L133.389 3.14614V3.01684C133.863 1.55152 132.484 0.905053 131.191 0.603369C130.846 0.905053 130.544 1.24984 130.329 1.59462C130.329 1.59462 130.156 1.81011 129.984 2.19799C129.941 2.28418 129.898 2.37038 129.855 2.45657C129.855 2.45657 129.855 2.45657 129.855 2.49967C129.855 2.54277 129.811 2.58587 129.811 2.62896C129.682 2.93065 129.596 3.31853 129.467 3.70641C129.337 4.09429 129.337 4.52527 129.337 4.87005C129.337 5.30103 129.381 5.64581 129.381 5.64581C129.855 8.92124 133.776 8.27477 133.776 8.27477C136.104 8.01619 137.354 6.89564 138 5.7751C138.259 5.38722 138.733 4.43907 138.862 3.14614C138.862 3.05994 138.862 3.01684 138.862 2.93065C138.862 2.88755 138.862 2.84445 138.862 2.80136C138.862 2.71516 138.862 2.62896 138.862 2.49967C138.862 2.45657 138.862 2.41348 138.862 2.37038C138.905 2.19799 138.905 2.06869 138.862 1.9825ZM133.432 6.59396H133.604C133.604 6.59396 133.518 6.63706 133.432 6.59396Z"/></svg>