<svg xmlns="http://www.w3.org/2000/svg" width="1920" height="804" fill="none" viewBox="0 0 1920 804"><g clip-path="url(#clip0)"><path stroke="#1EE46E" stroke-width="8" d="M2228.9 829C2103.17 811.673 2172.32 800.71 1863.23 711.791C1554.14 622.872 1612.2 707.439 1262.51 673.333C912.822 639.227 797.394 317.137 473.898 237.963C150.401 158.788 107.71 41.8539 -47.3638 41.8539"/><path stroke="#1380E5" stroke-width="8" d="M2228.9 829C2103.46 816.67 2053.8 759.703 1745.42 696.426C1437.04 633.149 1458.64 531.617 1109.86 547.771C761.077 563.926 801.462 417.07 436.526 300.32C71.5894 183.57 78.7172 0 -76.0005 0"/><path stroke="#B126F2" stroke-width="8" d="M2228.9 829C2103.17 824.702 2053.4 799.213 1744.31 777.156C1435.22 755.099 1353.08 619.379 1003.39 610.919C653.698 602.459 678.837 256.997 436.525 158.604C194.214 60.2109 82.0103 210.003 -73.0635 210.003"/></g><defs><clipPath id="clip0"><rect width="1920" height="804" fill="#fff"/></clipPath></defs></svg>