<svg width="73" height="20" viewBox="0 0 73 20" fill="none" xmlns="http://www.w3.org/2000/svg">
<path fill-rule="evenodd" clip-rule="evenodd" d="M10.2447 15.534C8.82973 17.0644 6.91629 18 4.33735 18H3.9037L3.90362 13.0769H4.33735C5.73431 13.0769 6.44135 12.6279 6.94661 12.0814C7.57342 11.4034 8.03462 10.4252 8.6446 8.98728C8.6822 8.89864 8.72065 8.80747 8.76002 8.71408C9.28361 7.47228 9.97235 5.83878 11.0479 4.55458C12.3476 3.00267 14.1463 2 16.6265 2V6.92308C15.4923 6.92308 14.9415 7.30502 14.5018 7.83004C13.9188 8.52619 13.4985 9.51083 12.8614 11.0127L12.8588 11.0189C12.2944 12.3495 11.536 14.1372 10.2447 15.534Z" fill="white"/>
<path fill-rule="evenodd" clip-rule="evenodd" d="M16.4819 18C20.634 18 24 14.4183 24 10C24 5.58172 20.634 2 16.4819 2L16.4819 6.92308C18.0789 6.92308 19.3735 8.30066 19.3735 10C19.3735 11.6993 18.0789 13.0769 16.4819 13.0769V18Z" fill="white"/>
<path d="M0 13.0769H16.4819V18L0 18L0 13.0769Z" fill="white"/>
<path d="M29.4304 16V5.568H32.9984C33.5424 5.568 34.0438 5.61067 34.5024 5.696C34.9718 5.77067 35.3771 5.90933 35.7184 6.112C36.0704 6.31467 36.3424 6.58133 36.5344 6.912C36.7371 7.24267 36.8384 7.65867 36.8384 8.16C36.8384 8.39467 36.8064 8.62933 36.7424 8.864C36.6784 9.09867 36.5878 9.31733 36.4704 9.52C36.3531 9.72267 36.2091 9.904 36.0384 10.064C35.8784 10.224 35.6918 10.3413 35.4784 10.416V10.48C35.7451 10.544 35.9904 10.6453 36.2144 10.784C36.4384 10.912 36.6358 11.0773 36.8064 11.28C36.9771 11.4827 37.1104 11.7227 37.2064 12C37.3024 12.2667 37.3504 12.576 37.3504 12.928C37.3504 13.4613 37.2438 13.92 37.0304 14.304C36.8278 14.688 36.5398 15.008 36.1664 15.264C35.8038 15.5093 35.3771 15.696 34.8864 15.824C34.3958 15.9413 33.8678 16 33.3024 16H29.4304ZM31.7824 9.744H32.8864C33.4624 9.744 33.8784 9.632 34.1344 9.408C34.4011 9.184 34.5344 8.88533 34.5344 8.512C34.5344 8.10667 34.4011 7.81867 34.1344 7.648C33.8678 7.47733 33.4571 7.392 32.9024 7.392H31.7824V9.744ZM31.7824 14.176H33.1104C34.4011 14.176 35.0464 13.7067 35.0464 12.768C35.0464 12.3093 34.8864 11.984 34.5664 11.792C34.2464 11.5893 33.7611 11.488 33.1104 11.488H31.7824V14.176ZM38.6059 16V8.064H40.5259L40.6859 9.456H40.7499C41.0379 8.912 41.3846 8.512 41.7899 8.256C42.1953 8 42.6006 7.872 43.0059 7.872C43.2299 7.872 43.4113 7.888 43.5499 7.92C43.6993 7.94133 43.8326 7.97867 43.9499 8.032L43.5659 10.064C43.4166 10.0213 43.2779 9.98933 43.1499 9.968C43.0219 9.94667 42.8726 9.936 42.7019 9.936C42.4033 9.936 42.0886 10.0427 41.7579 10.256C41.4379 10.4693 41.1713 10.848 40.9579 11.392V16H38.6059ZM44.6609 16V8.064H47.0129V16H44.6609ZM45.8289 6.896C45.4343 6.896 45.1089 6.784 44.8529 6.56C44.5969 6.32533 44.4689 6.02667 44.4689 5.664C44.4689 5.30133 44.5969 5.008 44.8529 4.784C45.1089 4.56 45.4343 4.448 45.8289 4.448C46.2343 4.448 46.5596 4.56 46.8049 4.784C47.0609 5.008 47.1889 5.30133 47.1889 5.664C47.1889 6.02667 47.0609 6.32533 46.8049 6.56C46.5596 6.784 46.2343 6.896 45.8289 6.896ZM51.5948 16.192C51.1041 16.192 50.6561 16.096 50.2508 15.904C49.8561 15.712 49.5148 15.44 49.2268 15.088C48.9495 14.7253 48.7308 14.288 48.5708 13.776C48.4215 13.264 48.3468 12.6827 48.3468 12.032C48.3468 11.3813 48.4375 10.8 48.6188 10.288C48.8108 9.776 49.0561 9.344 49.3548 8.992C49.6641 8.62933 50.0161 8.352 50.4108 8.16C50.8161 7.968 51.2268 7.872 51.6428 7.872C52.0908 7.872 52.4588 7.94667 52.7468 8.096C53.0348 8.24533 53.3175 8.448 53.5948 8.704L53.4988 7.488V4.784H55.8508V16H53.9308L53.7708 15.216H53.7068C53.4295 15.4933 53.1041 15.728 52.7308 15.92C52.3575 16.1013 51.9788 16.192 51.5948 16.192ZM52.2028 14.272C52.4588 14.272 52.6881 14.2187 52.8908 14.112C53.1041 14.0053 53.3068 13.8187 53.4988 13.552V10.304C53.2855 10.112 53.0668 9.97867 52.8428 9.904C52.6188 9.82933 52.4001 9.792 52.1868 9.792C51.8135 9.792 51.4828 9.97333 51.1948 10.336C50.9068 10.688 50.7628 11.2427 50.7628 12C50.7628 12.7893 50.8855 13.3653 51.1308 13.728C51.3868 14.0907 51.7441 14.272 52.2028 14.272ZM60.4467 19.376C59.9774 19.376 59.54 19.3333 59.1347 19.248C58.74 19.1733 58.388 19.056 58.0787 18.896C57.78 18.736 57.5454 18.528 57.3747 18.272C57.204 18.016 57.1187 17.712 57.1187 17.36C57.1187 16.72 57.4974 16.1867 58.2547 15.76V15.696C58.0414 15.5573 57.8654 15.3813 57.7267 15.168C57.588 14.9547 57.5187 14.6827 57.5187 14.352C57.5187 14.064 57.604 13.792 57.7747 13.536C57.9454 13.2693 58.1587 13.0453 58.4147 12.864V12.8C58.1374 12.608 57.8867 12.336 57.6627 11.984C57.4494 11.6213 57.3427 11.2053 57.3427 10.736C57.3427 10.256 57.4334 9.84 57.6147 9.488C57.796 9.12533 58.036 8.82667 58.3347 8.592C58.644 8.34667 58.996 8.16533 59.3907 8.048C59.7854 7.93067 60.196 7.872 60.6227 7.872C61.092 7.872 61.5027 7.936 61.8547 8.064H64.7507V9.776H63.4867C63.5614 9.89333 63.62 10.0427 63.6627 10.224C63.716 10.4053 63.7427 10.6027 63.7427 10.816C63.7427 11.2747 63.6627 11.6747 63.5027 12.016C63.3427 12.3467 63.1187 12.624 62.8307 12.848C62.5534 13.0613 62.2227 13.2213 61.8387 13.328C61.4654 13.4347 61.06 13.488 60.6227 13.488C60.3134 13.488 59.9934 13.4347 59.6627 13.328C59.556 13.4133 59.4814 13.4987 59.4387 13.584C59.396 13.6693 59.3747 13.7813 59.3747 13.92C59.3747 14.1227 59.46 14.272 59.6307 14.368C59.812 14.464 60.1267 14.512 60.5747 14.512H61.8547C62.836 14.512 63.5827 14.672 64.0947 14.992C64.6174 15.3013 64.8787 15.8133 64.8787 16.528C64.8787 16.944 64.772 17.3227 64.5587 17.664C64.356 18.016 64.0627 18.3147 63.6787 18.56C63.2947 18.816 62.8307 19.0133 62.2867 19.152C61.7427 19.3013 61.1294 19.376 60.4467 19.376ZM60.6227 12.064C60.932 12.064 61.188 11.9573 61.3907 11.744C61.604 11.52 61.7107 11.184 61.7107 10.736C61.7107 10.32 61.604 10.0053 61.3907 9.792C61.188 9.568 60.932 9.456 60.6227 9.456C60.3134 9.456 60.052 9.56267 59.8387 9.776C59.636 9.98933 59.5347 10.3093 59.5347 10.736C59.5347 11.184 59.636 11.52 59.8387 11.744C60.052 11.9573 60.3134 12.064 60.6227 12.064ZM60.8147 17.904C61.348 17.904 61.7854 17.808 62.1267 17.616C62.468 17.4347 62.6387 17.2053 62.6387 16.928C62.6387 16.6827 62.532 16.5173 62.3187 16.432C62.116 16.3467 61.8174 16.304 61.4227 16.304H60.6067C60.3294 16.304 60.1054 16.2933 59.9347 16.272C59.764 16.2613 59.6147 16.24 59.4867 16.208C59.1987 16.464 59.0547 16.7253 59.0547 16.992C59.0547 17.2907 59.2147 17.5147 59.5347 17.664C59.8547 17.824 60.2814 17.904 60.8147 17.904ZM69.1123 16.192C68.547 16.192 68.019 16.1013 67.5283 15.92C67.0376 15.728 66.611 15.456 66.2483 15.104C65.8856 14.7413 65.603 14.304 65.4003 13.792C65.1976 13.28 65.0963 12.6933 65.0963 12.032C65.0963 11.392 65.203 10.816 65.4163 10.304C65.6296 9.78133 65.907 9.344 66.2483 8.992C66.6003 8.62933 67.0003 8.352 67.4483 8.16C67.8963 7.968 68.3603 7.872 68.8403 7.872C69.4056 7.872 69.8963 7.968 70.3123 8.16C70.739 8.352 71.091 8.61867 71.3683 8.96C71.6563 9.30133 71.8696 9.70667 72.0083 10.176C72.147 10.6347 72.2163 11.136 72.2163 11.68C72.2163 11.8933 72.2056 12.096 72.1843 12.288C72.163 12.48 72.1416 12.624 72.1203 12.72H67.3683C67.475 13.296 67.7096 13.7227 68.0723 14C68.4456 14.2667 68.899 14.4 69.4323 14.4C69.9976 14.4 70.5683 14.224 71.1443 13.872L71.9283 15.296C71.523 15.5733 71.0696 15.792 70.5683 15.952C70.0776 16.112 69.5923 16.192 69.1123 16.192ZM67.3523 11.168H70.2163C70.2163 10.72 70.115 10.3573 69.9123 10.08C69.7096 9.80267 69.3683 9.664 68.8883 9.664C68.515 9.664 68.1843 9.78667 67.8963 10.032C67.619 10.2773 67.4376 10.656 67.3523 11.168Z" fill="white"/>
</svg>
